<svg xmlns="http://www.w3.org/2000/svg" viewBox="0 0 800 1000"><defs>
<linearGradient id="bg" x1="0" y1="0" x2="0" y2="1">
<stop offset="0" stop-color="#1a1a1a"/><stop offset="1" stop-color="#0a0a0a"/>
</linearGradient>
<radialGradient id="halo"><stop offset="0" stop-color="#E53935" stop-opacity=".30"/><stop offset="1" stop-color="#E53935" stop-opacity="0"/></radialGradient>
<radialGradient id="ballG" cx=".35" cy=".3" r="1"><stop offset="0" stop-color="#ff8a80"/><stop offset=".55" stop-color="#e53935"/><stop offset="1" stop-color="#8f1414"/></radialGradient>
<linearGradient id="redV" x1="0" y1="0" x2="0" y2="1"><stop offset="0" stop-color="#ff5f52"/><stop offset="1" stop-color="#b71c1c"/></linearGradient>
<radialGradient id="vig"><stop offset=".6" stop-color="#000" stop-opacity="0"/><stop offset="1" stop-color="#000" stop-opacity=".5"/></radialGradient>
<filter id="glow" x="-80%" y="-80%" width="260%" height="260%"><feGaussianBlur stdDeviation="10" result="b"/><feMerge><feMergeNode in="b"/><feMergeNode in="SourceGraphic"/></feMerge></filter>
</defs><rect width="800" height="1000" fill="url(#bg)"/><text x="400" y="700" font-family="Impact, 'Arial Black', sans-serif" font-size="660" fill="none" stroke="#E53935" stroke-opacity=".09" stroke-width="3" text-anchor="middle">V</text><circle cx="380" cy="480" r="360" fill="url(#halo)"/><line x1="60" y1="800" x2="740" y2="800" stroke="#fff" stroke-opacity=".1" stroke-width="2"/><ellipse cx="320" cy="800" rx="110" ry="13" fill="#000" opacity=".5"/><polyline points="322,348 320,520" fill="none" stroke="#f5f5f5" stroke-width="52" stroke-linecap="round" stroke-linejoin="round"/><polyline points="320,520 282,656 276,786" fill="none" stroke="#f5f5f5" stroke-width="27" stroke-linecap="round" stroke-linejoin="round"/><polyline points="320,520 364,656 370,786" fill="none" stroke="#f5f5f5" stroke-width="27" stroke-linecap="round" stroke-linejoin="round"/><polyline points="318,372 452,330 562,302" fill="none" stroke="#f5f5f5" stroke-width="27" stroke-linecap="round" stroke-linejoin="round"/><polyline points="322,376 242,452" fill="none" stroke="#f5f5f5" stroke-width="27" stroke-linecap="round" stroke-linejoin="round"/><g transform="rotate(-12 218 500)"><rect x="172" y="438" width="96" height="126" rx="8" fill="#161616" stroke="#f5f5f5" stroke-width="5"/><line x1="190" y1="472" x2="250" y2="472" stroke="#E53935" stroke-width="5"/><line x1="190" y1="498" x2="250" y2="498" stroke="#555" stroke-width="5"/><line x1="190" y1="524" x2="236" y2="524" stroke="#555" stroke-width="5"/></g><circle cx="324" cy="296" r="32" fill="#f5f5f5"/><polygon points="620,726 594,790 646,790" fill="#E53935"/><rect x="604" y="759" width="33" height="10" fill="#fff" opacity=".85"/><circle cx="520" cy="756" r="76" fill="url(#halo)"/><circle cx="520" cy="756" r="40" fill="url(#ballG)"/><polygon points="520.0,739.2 536.0,750.8 529.9,769.6 510.1,769.6 504.0,750.8" fill="#140000" opacity=".85"/><line x1="520" y1="739" x2="520" y2="722" stroke="#140000" stroke-width="3" opacity=".8"/><line x1="536" y1="751" x2="553" y2="745" stroke="#140000" stroke-width="3" opacity=".8"/><line x1="530" y1="770" x2="540" y2="784" stroke="#140000" stroke-width="3" opacity=".8"/><line x1="510" y1="770" x2="500" y2="784" stroke="#140000" stroke-width="3" opacity=".8"/><line x1="504" y1="751" x2="487" y2="745" stroke="#140000" stroke-width="3" opacity=".8"/><text x="400" y="900" font-family="Arial, sans-serif" font-size="17" letter-spacing="8" fill="#fff" opacity=".35" text-anchor="middle">PRO-ACADEMY METHODOLOGY</text><rect width="800" height="1000" fill="url(#vig)"/></svg>