<svg xmlns="http://www.w3.org/2000/svg" viewBox="0 0 700 560"><defs>
<linearGradient id="bg" x1="0" y1="0" x2="0" y2="1">
<stop offset="0" stop-color="#1a1a1a"/><stop offset="1" stop-color="#0a0a0a"/>
</linearGradient>
<radialGradient id="halo"><stop offset="0" stop-color="#E53935" stop-opacity=".30"/><stop offset="1" stop-color="#E53935" stop-opacity="0"/></radialGradient>
<radialGradient id="ballG" cx=".35" cy=".3" r="1"><stop offset="0" stop-color="#ff8a80"/><stop offset=".55" stop-color="#e53935"/><stop offset="1" stop-color="#8f1414"/></radialGradient>
<linearGradient id="redV" x1="0" y1="0" x2="0" y2="1"><stop offset="0" stop-color="#ff5f52"/><stop offset="1" stop-color="#b71c1c"/></linearGradient>
<radialGradient id="vig"><stop offset=".6" stop-color="#000" stop-opacity="0"/><stop offset="1" stop-color="#000" stop-opacity=".5"/></radialGradient>
<filter id="glow" x="-80%" y="-80%" width="260%" height="260%"><feGaussianBlur stdDeviation="10" result="b"/><feMerge><feMergeNode in="b"/><feMergeNode in="SourceGraphic"/></feMerge></filter>
</defs><rect width="700" height="560" fill="url(#bg)"/><circle cx="172" cy="234" r="3" fill="#E53935" opacity="0.23"/><circle cx="60" cy="350" r="2" fill="#E53935" opacity="0.47"/><circle cx="432" cy="374" r="2" fill="#E53935" opacity="0.24"/><circle cx="272" cy="374" r="2" fill="#E53935" opacity="0.27"/><circle cx="318" cy="237" r="3" fill="#E53935" opacity="0.38"/><circle cx="185" cy="119" r="2" fill="#E53935" opacity="0.70"/><circle cx="537" cy="305" r="2" fill="#E53935" opacity="0.36"/><circle cx="207" cy="112" r="3" fill="#E53935" opacity="0.37"/><circle cx="331" cy="305" r="3" fill="#E53935" opacity="0.28"/><circle cx="83" cy="165" r="3" fill="#E53935" opacity="0.38"/><circle cx="616" cy="73" r="3" fill="#E53935" opacity="0.35"/><circle cx="153" cy="416" r="2" fill="#E53935" opacity="0.46"/><circle cx="231" cy="242" r="2" fill="#E53935" opacity="0.47"/><circle cx="574" cy="228" r="3" fill="#E53935" opacity="0.31"/><circle cx="259" cy="182" r="2" fill="#E53935" opacity="0.57"/><circle cx="292" cy="162" r="3" fill="#E53935" opacity="0.45"/><circle cx="89" cy="74" r="2" fill="#E53935" opacity="0.44"/><circle cx="258" cy="414" r="3" fill="#E53935" opacity="0.68"/><circle cx="517" cy="430" r="2" fill="#E53935" opacity="0.68"/><circle cx="433" cy="101" r="2" fill="#E53935" opacity="0.25"/><circle cx="541" cy="160" r="2" fill="#E53935" opacity="0.30"/><circle cx="61" cy="305" r="3" fill="#E53935" opacity="0.37"/><circle cx="146" cy="398" r="2" fill="#E53935" opacity="0.65"/><circle cx="264" cy="304" r="2" fill="#E53935" opacity="0.42"/><circle cx="400" cy="104" r="3" fill="#E53935" opacity="0.40"/><circle cx="471" cy="440" r="2" fill="#E53935" opacity="0.56"/><circle cx="234" cy="125" r="2" fill="#E53935" opacity="0.28"/><circle cx="536" cy="395" r="2" fill="#E53935" opacity="0.51"/><circle cx="545" cy="396" r="2" fill="#E53935" opacity="0.28"/><circle cx="621" cy="127" r="2" fill="#E53935" opacity="0.21"/><circle cx="350" cy="266" r="320" fill="url(#halo)"/><circle cx="350" cy="266" r="209" fill="url(#halo)"/><circle cx="350" cy="266" r="110" fill="url(#ballG)"/><polygon points="350.0,219.8 393.9,251.7 377.2,303.4 322.8,303.4 306.1,251.7" fill="#140000" opacity=".85"/><line x1="350" y1="220" x2="350" y2="171" stroke="#140000" stroke-width="8" opacity=".8"/><line x1="394" y1="252" x2="440" y2="237" stroke="#140000" stroke-width="8" opacity=".8"/><line x1="377" y1="303" x2="406" y2="343" stroke="#140000" stroke-width="8" opacity=".8"/><line x1="323" y1="303" x2="294" y2="343" stroke="#140000" stroke-width="8" opacity=".8"/><line x1="306" y1="252" x2="260" y2="237" stroke="#140000" stroke-width="8" opacity=".8"/><ellipse cx="350" cy="266" rx="210" ry="64" fill="none" stroke="#E53935" stroke-opacity=".4" stroke-width="2" transform="rotate(-16 350 266)"/><ellipse cx="350" cy="266" rx="250" ry="84" fill="none" stroke="#E53935" stroke-opacity=".18" stroke-width="2" transform="rotate(12 350 266)"/><ellipse cx="350" cy="488" rx="150" ry="20" fill="#E53935" opacity=".08"/><text x="674" y="540" font-family="Arial, sans-serif" font-size="15" letter-spacing="6" fill="#fff" opacity=".16" text-anchor="end">VELOCITY</text><rect width="700" height="560" fill="url(#vig)"/></svg>