<svg xmlns="http://www.w3.org/2000/svg" viewBox="0 0 700 560"><defs>
<linearGradient id="bg" x1="0" y1="0" x2="0" y2="1">
<stop offset="0" stop-color="#1a1a1a"/><stop offset="1" stop-color="#0a0a0a"/>
</linearGradient>
<radialGradient id="halo"><stop offset="0" stop-color="#E53935" stop-opacity=".30"/><stop offset="1" stop-color="#E53935" stop-opacity="0"/></radialGradient>
<radialGradient id="ballG" cx=".35" cy=".3" r="1"><stop offset="0" stop-color="#ff8a80"/><stop offset=".55" stop-color="#e53935"/><stop offset="1" stop-color="#8f1414"/></radialGradient>
<linearGradient id="redV" x1="0" y1="0" x2="0" y2="1"><stop offset="0" stop-color="#ff5f52"/><stop offset="1" stop-color="#b71c1c"/></linearGradient>
<radialGradient id="vig"><stop offset=".6" stop-color="#000" stop-opacity="0"/><stop offset="1" stop-color="#000" stop-opacity=".5"/></radialGradient>
<filter id="glow" x="-80%" y="-80%" width="260%" height="260%"><feGaussianBlur stdDeviation="10" result="b"/><feMerge><feMergeNode in="b"/><feMergeNode in="SourceGraphic"/></feMerge></filter>
</defs><rect width="700" height="560" fill="url(#bg)"/><rect x="391" y="98" width="7" height="11" rx="2" fill="#fff" opacity="0.54" transform="rotate(-41 608 84)"/><rect x="434" y="209" width="7" height="11" rx="2" fill="#E53935" opacity="0.66" transform="rotate(-23 98 82)"/><rect x="504" y="167" width="7" height="11" rx="2" fill="#E53935" opacity="0.36" transform="rotate(20 494 75)"/><rect x="639" y="91" width="7" height="11" rx="2" fill="#E53935" opacity="0.53" transform="rotate(24 123 207)"/><rect x="466" y="72" width="7" height="11" rx="2" fill="#E53935" opacity="0.27" transform="rotate(-33 356 167)"/><rect x="207" y="198" width="7" height="11" rx="2" fill="#E53935" opacity="0.51" transform="rotate(21 245 86)"/><rect x="252" y="155" width="7" height="11" rx="2" fill="#E53935" opacity="0.50" transform="rotate(-42 637 75)"/><rect x="270" y="187" width="7" height="11" rx="2" fill="#FFD700" opacity="0.49" transform="rotate(49 381 179)"/><rect x="524" y="152" width="7" height="11" rx="2" fill="#fff" opacity="0.36" transform="rotate(-27 309 80)"/><rect x="367" y="194" width="7" height="11" rx="2" fill="#fff" opacity="0.64" transform="rotate(43 519 133)"/><rect x="134" y="90" width="7" height="11" rx="2" fill="#FFD700" opacity="0.44" transform="rotate(46 410 98)"/><rect x="560" y="167" width="7" height="11" rx="2" fill="#E53935" opacity="0.68" transform="rotate(-41 631 206)"/><rect x="381" y="147" width="7" height="11" rx="2" fill="#FFD700" opacity="0.41" transform="rotate(13 527 77)"/><rect x="155" y="129" width="7" height="11" rx="2" fill="#fff" opacity="0.56" transform="rotate(-42 122 247)"/><rect x="377" y="225" width="7" height="11" rx="2" fill="#FFD700" opacity="0.70" transform="rotate(7 351 243)"/><rect x="455" y="287" width="7" height="11" rx="2" fill="#FFD700" opacity="0.41" transform="rotate(9 423 103)"/><rect x="179" y="186" width="7" height="11" rx="2" fill="#E53935" opacity="0.35" transform="rotate(-14 192 249)"/><rect x="313" y="161" width="7" height="11" rx="2" fill="#fff" opacity="0.66" transform="rotate(13 142 102)"/><rect x="519" y="162" width="7" height="11" rx="2" fill="#FFD700" opacity="0.38" transform="rotate(-33 500 281)"/><rect x="623" y="131" width="7" height="11" rx="2" fill="#FFD700" opacity="0.44" transform="rotate(-5 449 119)"/><rect x="214" y="81" width="7" height="11" rx="2" fill="#E53935" opacity="0.32" transform="rotate(34 298 63)"/><rect x="556" y="272" width="7" height="11" rx="2" fill="#FFD700" opacity="0.33" transform="rotate(-14 64 97)"/><rect x="489" y="196" width="7" height="11" rx="2" fill="#fff" opacity="0.52" transform="rotate(-10 188 236)"/><rect x="587" y="218" width="7" height="11" rx="2" fill="#FFD700" opacity="0.55" transform="rotate(-44 527 290)"/><rect x="632" y="160" width="7" height="11" rx="2" fill="#fff" opacity="0.43" transform="rotate(-37 553 222)"/><rect x="470" y="75" width="7" height="11" rx="2" fill="#E53935" opacity="0.28" transform="rotate(-24 511 101)"/><circle cx="350" cy="260" r="280" fill="url(#halo)"/><line x1="40" y1="470" x2="660" y2="470" stroke="#fff" stroke-opacity=".09" stroke-width="2"/><ellipse cx="350" cy="470" rx="190" ry="26" fill="none" stroke="#fff" stroke-opacity=".06" stroke-width="2"/><ellipse cx="350" cy="470" rx="90" ry="13" fill="#000" opacity=".5"/><polyline points="350,196 350,312" fill="none" stroke="#f5f5f5" stroke-width="46" stroke-linecap="round" stroke-linejoin="round"/><polyline points="348,212 282,128" fill="none" stroke="#f5f5f5" stroke-width="24" stroke-linecap="round" stroke-linejoin="round"/><polyline points="352,212 418,128" fill="none" stroke="#f5f5f5" stroke-width="24" stroke-linecap="round" stroke-linejoin="round"/><polyline points="350,312 302,396 296,466" fill="none" stroke="#f5f5f5" stroke-width="24" stroke-linecap="round" stroke-linejoin="round"/><polyline points="350,312 398,396 404,466" fill="none" stroke="#f5f5f5" stroke-width="24" stroke-linecap="round" stroke-linejoin="round"/><circle cx="350" cy="156" r="28" fill="#f5f5f5"/><circle cx="560" cy="452" r="53" fill="url(#halo)"/><circle cx="560" cy="452" r="28" fill="url(#ballG)"/><polygon points="560.0,440.2 571.2,448.4 566.9,461.5 553.1,461.5 548.8,448.4" fill="#140000" opacity=".85"/><line x1="560" y1="440" x2="560" y2="428" stroke="#140000" stroke-width="2" opacity=".8"/><line x1="571" y1="448" x2="583" y2="445" stroke="#140000" stroke-width="2" opacity=".8"/><line x1="567" y1="462" x2="574" y2="471" stroke="#140000" stroke-width="2" opacity=".8"/><line x1="553" y1="462" x2="546" y2="471" stroke="#140000" stroke-width="2" opacity=".8"/><line x1="549" y1="448" x2="537" y2="445" stroke="#140000" stroke-width="2" opacity=".8"/><text x="674" y="540" font-family="Arial, sans-serif" font-size="15" letter-spacing="6" fill="#fff" opacity=".16" text-anchor="end">VELOCITY</text><rect width="700" height="560" fill="url(#vig)"/></svg>