<svg xmlns="http://www.w3.org/2000/svg" viewBox="0 0 700 560"><defs>
<linearGradient id="bg" x1="0" y1="0" x2="0" y2="1">
<stop offset="0" stop-color="#1a1a1a"/><stop offset="1" stop-color="#0a0a0a"/>
</linearGradient>
<radialGradient id="halo"><stop offset="0" stop-color="#E53935" stop-opacity=".30"/><stop offset="1" stop-color="#E53935" stop-opacity="0"/></radialGradient>
<radialGradient id="ballG" cx=".35" cy=".3" r="1"><stop offset="0" stop-color="#ff8a80"/><stop offset=".55" stop-color="#e53935"/><stop offset="1" stop-color="#8f1414"/></radialGradient>
<linearGradient id="redV" x1="0" y1="0" x2="0" y2="1"><stop offset="0" stop-color="#ff5f52"/><stop offset="1" stop-color="#b71c1c"/></linearGradient>
<radialGradient id="vig"><stop offset=".6" stop-color="#000" stop-opacity="0"/><stop offset="1" stop-color="#000" stop-opacity=".5"/></radialGradient>
<filter id="glow" x="-80%" y="-80%" width="260%" height="260%"><feGaussianBlur stdDeviation="10" result="b"/><feMerge><feMergeNode in="b"/><feMergeNode in="SourceGraphic"/></feMerge></filter>
</defs><rect width="700" height="560" fill="url(#bg)"/><circle cx="360" cy="320" r="270" fill="url(#halo)"/><line x1="40" y1="470" x2="660" y2="470" stroke="#fff" stroke-opacity=".09" stroke-width="2"/><ellipse cx="350" cy="470" rx="190" ry="26" fill="none" stroke="#fff" stroke-opacity=".06" stroke-width="2"/><polygon points="130,418 108,472 152,472" fill="#E53935"/><rect x="116" y="446" width="28" height="8" fill="#fff" opacity=".85"/><polygon points="210,422 192,466 228,466" fill="#E53935"/><rect x="199" y="445" width="23" height="7" fill="#fff" opacity=".85"/><ellipse cx="350" cy="472" rx="90" ry="13" fill="#000" opacity=".5"/><polyline points="312,182 352,292" fill="none" stroke="#f5f5f5" stroke-width="46" stroke-linecap="round" stroke-linejoin="round"/><polyline points="352,292 424,352 436,446" fill="none" stroke="#f5f5f5" stroke-width="24" stroke-linecap="round" stroke-linejoin="round"/><polyline points="352,292 298,380 252,434" fill="none" stroke="#f5f5f5" stroke-width="24" stroke-linecap="round" stroke-linejoin="round"/><polyline points="318,200 394,244" fill="none" stroke="#f5f5f5" stroke-width="24" stroke-linecap="round" stroke-linejoin="round"/><polyline points="316,202 240,256" fill="none" stroke="#f5f5f5" stroke-width="24" stroke-linecap="round" stroke-linejoin="round"/><circle cx="302" cy="142" r="28" fill="#f5f5f5"/><circle cx="478" cy="452" r="57" fill="url(#halo)"/><circle cx="478" cy="452" r="30" fill="url(#ballG)"/><polygon points="478.0,439.4 490.0,448.1 485.4,462.2 470.6,462.2 466.0,448.1" fill="#140000" opacity=".85"/><line x1="478" y1="439" x2="478" y2="426" stroke="#140000" stroke-width="2" opacity=".8"/><line x1="490" y1="448" x2="503" y2="444" stroke="#140000" stroke-width="2" opacity=".8"/><line x1="485" y1="462" x2="493" y2="473" stroke="#140000" stroke-width="2" opacity=".8"/><line x1="471" y1="462" x2="463" y2="473" stroke="#140000" stroke-width="2" opacity=".8"/><line x1="466" y1="448" x2="453" y2="444" stroke="#140000" stroke-width="2" opacity=".8"/><text x="674" y="540" font-family="Arial, sans-serif" font-size="15" letter-spacing="6" fill="#fff" opacity=".16" text-anchor="end">VELOCITY</text><rect width="700" height="560" fill="url(#vig)"/></svg>