<svg xmlns="http://www.w3.org/2000/svg" viewBox="0 0 700 560"><defs>
<linearGradient id="bg" x1="0" y1="0" x2="0" y2="1">
<stop offset="0" stop-color="#1a1a1a"/><stop offset="1" stop-color="#0a0a0a"/>
</linearGradient>
<radialGradient id="halo"><stop offset="0" stop-color="#E53935" stop-opacity=".30"/><stop offset="1" stop-color="#E53935" stop-opacity="0"/></radialGradient>
<radialGradient id="ballG" cx=".35" cy=".3" r="1"><stop offset="0" stop-color="#ff8a80"/><stop offset=".55" stop-color="#e53935"/><stop offset="1" stop-color="#8f1414"/></radialGradient>
<linearGradient id="redV" x1="0" y1="0" x2="0" y2="1"><stop offset="0" stop-color="#ff5f52"/><stop offset="1" stop-color="#b71c1c"/></linearGradient>
<radialGradient id="vig"><stop offset=".6" stop-color="#000" stop-opacity="0"/><stop offset="1" stop-color="#000" stop-opacity=".5"/></radialGradient>
<filter id="glow" x="-80%" y="-80%" width="260%" height="260%"><feGaussianBlur stdDeviation="10" result="b"/><feMerge><feMergeNode in="b"/><feMergeNode in="SourceGraphic"/></feMerge></filter>
</defs><rect width="700" height="560" fill="url(#bg)"/><circle cx="350" cy="280" r="300" fill="url(#halo)"/><g stroke="#fff" stroke-opacity=".55" stroke-width="6"><line x1="200" y1="90" x2="200" y2="480"/><line x1="290" y1="90" x2="290" y2="480"/><line x1="200" y1="90" x2="290" y2="90"/><line x1="200" y1="138" x2="290" y2="138"/><line x1="200" y1="186" x2="290" y2="186"/><line x1="200" y1="234" x2="290" y2="234"/><line x1="200" y1="282" x2="290" y2="282"/><line x1="200" y1="330" x2="290" y2="330"/><line x1="200" y1="378" x2="290" y2="378"/><line x1="200" y1="426" x2="290" y2="426"/><line x1="200" y1="474" x2="290" y2="474"/></g><polygon points="430,104 412,150 448,150" fill="#E53935"/><rect x="418" y="128" width="24" height="7" fill="#fff" opacity=".85"/><polygon points="550,184 532,230 568,230" fill="#E53935"/><rect x="538" y="208" width="24" height="7" fill="#fff" opacity=".85"/><polygon points="430,264 412,310 448,310" fill="#E53935"/><rect x="418" y="288" width="24" height="7" fill="#fff" opacity=".85"/><polygon points="550,344 532,390 568,390" fill="#E53935"/><rect x="538" y="368" width="24" height="7" fill="#fff" opacity=".85"/><polygon points="430,424 412,470 448,470" fill="#E53935"/><rect x="418" y="448" width="24" height="7" fill="#fff" opacity=".85"/><path d="M 430 110 Q 560 190 442 230 Q 320 270 560 310 Q 680 350 460 400" fill="none" stroke="#E53935" stroke-width="4" stroke-dasharray="12 10" opacity=".7"/><circle cx="470" cy="452" r="49" fill="url(#halo)"/><circle cx="470" cy="452" r="26" fill="url(#ballG)"/><polygon points="470.0,441.1 480.4,448.6 476.4,460.8 463.6,460.8 459.6,448.6" fill="#140000" opacity=".85"/><line x1="470" y1="441" x2="470" y2="430" stroke="#140000" stroke-width="2" opacity=".8"/><line x1="480" y1="449" x2="491" y2="445" stroke="#140000" stroke-width="2" opacity=".8"/><line x1="476" y1="461" x2="483" y2="470" stroke="#140000" stroke-width="2" opacity=".8"/><line x1="464" y1="461" x2="457" y2="470" stroke="#140000" stroke-width="2" opacity=".8"/><line x1="460" y1="449" x2="449" y2="445" stroke="#140000" stroke-width="2" opacity=".8"/><text x="674" y="540" font-family="Arial, sans-serif" font-size="15" letter-spacing="6" fill="#fff" opacity=".16" text-anchor="end">VELOCITY</text><rect width="700" height="560" fill="url(#vig)"/></svg>