<svg xmlns="http://www.w3.org/2000/svg" viewBox="0 0 700 560"><defs>
<linearGradient id="bg" x1="0" y1="0" x2="0" y2="1">
<stop offset="0" stop-color="#1a1a1a"/><stop offset="1" stop-color="#0a0a0a"/>
</linearGradient>
<radialGradient id="halo"><stop offset="0" stop-color="#E53935" stop-opacity=".30"/><stop offset="1" stop-color="#E53935" stop-opacity="0"/></radialGradient>
<radialGradient id="ballG" cx=".35" cy=".3" r="1"><stop offset="0" stop-color="#ff8a80"/><stop offset=".55" stop-color="#e53935"/><stop offset="1" stop-color="#8f1414"/></radialGradient>
<linearGradient id="redV" x1="0" y1="0" x2="0" y2="1"><stop offset="0" stop-color="#ff5f52"/><stop offset="1" stop-color="#b71c1c"/></linearGradient>
<radialGradient id="vig"><stop offset=".6" stop-color="#000" stop-opacity="0"/><stop offset="1" stop-color="#000" stop-opacity=".5"/></radialGradient>
<filter id="glow" x="-80%" y="-80%" width="260%" height="260%"><feGaussianBlur stdDeviation="10" result="b"/><feMerge><feMergeNode in="b"/><feMergeNode in="SourceGraphic"/></feMerge></filter>
</defs><rect width="700" height="560" fill="url(#bg)"/><circle cx="350" cy="220" r="260" fill="url(#halo)"/><line x1="40" y1="470" x2="660" y2="470" stroke="#fff" stroke-opacity=".09" stroke-width="2"/><ellipse cx="350" cy="470" rx="190" ry="26" fill="none" stroke="#fff" stroke-opacity=".06" stroke-width="2"/><ellipse cx="350" cy="470" rx="70" ry="13" fill="#000" opacity=".5"/><circle cx="350" cy="96" r="53" fill="url(#halo)"/><circle cx="350" cy="96" r="28" fill="url(#ballG)"/><polygon points="350.0,84.2 361.2,92.4 356.9,105.5 343.1,105.5 338.8,92.4" fill="#140000" opacity=".85"/><line x1="350" y1="84" x2="350" y2="72" stroke="#140000" stroke-width="2" opacity=".8"/><line x1="361" y1="92" x2="373" y2="89" stroke="#140000" stroke-width="2" opacity=".8"/><line x1="357" y1="106" x2="364" y2="115" stroke="#140000" stroke-width="2" opacity=".8"/><line x1="343" y1="106" x2="336" y2="115" stroke="#140000" stroke-width="2" opacity=".8"/><line x1="339" y1="92" x2="327" y2="89" stroke="#140000" stroke-width="2" opacity=".8"/><circle cx="350" cy="178" r="28" fill="#f5f5f5"/><polyline points="350,214 346,318" fill="none" stroke="#f5f5f5" stroke-width="46" stroke-linecap="round" stroke-linejoin="round"/><polyline points="348,228 270,180" fill="none" stroke="#f5f5f5" stroke-width="24" stroke-linecap="round" stroke-linejoin="round"/><polyline points="352,228 430,180" fill="none" stroke="#f5f5f5" stroke-width="24" stroke-linecap="round" stroke-linejoin="round"/><polyline points="346,318 308,388 330,446" fill="none" stroke="#f5f5f5" stroke-width="24" stroke-linecap="round" stroke-linejoin="round"/><polyline points="350,318 400,380 378,446" fill="none" stroke="#f5f5f5" stroke-width="24" stroke-linecap="round" stroke-linejoin="round"/><text x="674" y="540" font-family="Arial, sans-serif" font-size="15" letter-spacing="6" fill="#fff" opacity=".16" text-anchor="end">VELOCITY</text><rect width="700" height="560" fill="url(#vig)"/></svg>