<svg xmlns="http://www.w3.org/2000/svg" viewBox="0 0 700 560"><defs>
<linearGradient id="bg" x1="0" y1="0" x2="0" y2="1">
<stop offset="0" stop-color="#1a1a1a"/><stop offset="1" stop-color="#0a0a0a"/>
</linearGradient>
<radialGradient id="halo"><stop offset="0" stop-color="#E53935" stop-opacity=".30"/><stop offset="1" stop-color="#E53935" stop-opacity="0"/></radialGradient>
<radialGradient id="ballG" cx=".35" cy=".3" r="1"><stop offset="0" stop-color="#ff8a80"/><stop offset=".55" stop-color="#e53935"/><stop offset="1" stop-color="#8f1414"/></radialGradient>
<linearGradient id="redV" x1="0" y1="0" x2="0" y2="1"><stop offset="0" stop-color="#ff5f52"/><stop offset="1" stop-color="#b71c1c"/></linearGradient>
<radialGradient id="vig"><stop offset=".6" stop-color="#000" stop-opacity="0"/><stop offset="1" stop-color="#000" stop-opacity=".5"/></radialGradient>
<filter id="glow" x="-80%" y="-80%" width="260%" height="260%"><feGaussianBlur stdDeviation="10" result="b"/><feMerge><feMergeNode in="b"/><feMergeNode in="SourceGraphic"/></feMerge></filter>
</defs><rect width="700" height="560" fill="url(#bg)"/><g stroke="#fff" stroke-opacity=".5" stroke-width="7" fill="none"><polyline points="90,470 90,120 610,120 610,470"/></g><g stroke="#fff" stroke-opacity=".08" stroke-width="2"><line x1="130" y1="124" x2="130" y2="468"/><line x1="172" y1="124" x2="172" y2="468"/><line x1="214" y1="124" x2="214" y2="468"/><line x1="256" y1="124" x2="256" y2="468"/><line x1="298" y1="124" x2="298" y2="468"/><line x1="340" y1="124" x2="340" y2="468"/><line x1="382" y1="124" x2="382" y2="468"/><line x1="424" y1="124" x2="424" y2="468"/><line x1="466" y1="124" x2="466" y2="468"/><line x1="508" y1="124" x2="508" y2="468"/><line x1="550" y1="124" x2="550" y2="468"/><line x1="592" y1="124" x2="592" y2="468"/><line x1="92" y1="160" x2="608" y2="160"/><line x1="92" y1="202" x2="608" y2="202"/><line x1="92" y1="244" x2="608" y2="244"/><line x1="92" y1="286" x2="608" y2="286"/><line x1="92" y1="328" x2="608" y2="328"/><line x1="92" y1="370" x2="608" y2="370"/><line x1="92" y1="412" x2="608" y2="412"/><line x1="92" y1="454" x2="608" y2="454"/></g><circle cx="480" cy="240" r="260" fill="url(#halo)"/><polyline points="282,312 392,278" fill="none" stroke="#f5f5f5" stroke-width="46" stroke-linecap="round" stroke-linejoin="round"/><polyline points="392,282 470,238 542,206" fill="none" stroke="#f5f5f5" stroke-width="24" stroke-linecap="round" stroke-linejoin="round"/><polyline points="386,294 458,268" fill="none" stroke="#f5f5f5" stroke-width="24" stroke-linecap="round" stroke-linejoin="round"/><polyline points="284,312 212,360 152,402" fill="none" stroke="#f5f5f5" stroke-width="24" stroke-linecap="round" stroke-linejoin="round"/><polyline points="288,316 228,330 178,308" fill="none" stroke="#f5f5f5" stroke-width="24" stroke-linecap="round" stroke-linejoin="round"/><circle cx="252" cy="300" r="28" fill="#f5f5f5"/><circle cx="580" cy="178" r="57" fill="url(#halo)"/><circle cx="580" cy="178" r="30" fill="url(#ballG)"/><polygon points="580.0,165.4 592.0,174.1 587.4,188.2 572.6,188.2 568.0,174.1" fill="#140000" opacity=".85"/><line x1="580" y1="165" x2="580" y2="152" stroke="#140000" stroke-width="2" opacity=".8"/><line x1="592" y1="174" x2="605" y2="170" stroke="#140000" stroke-width="2" opacity=".8"/><line x1="587" y1="188" x2="595" y2="199" stroke="#140000" stroke-width="2" opacity=".8"/><line x1="573" y1="188" x2="565" y2="199" stroke="#140000" stroke-width="2" opacity=".8"/><line x1="568" y1="174" x2="555" y2="170" stroke="#140000" stroke-width="2" opacity=".8"/><line x1="40" y1="470" x2="660" y2="470" stroke="#fff" stroke-opacity=".09" stroke-width="2"/><ellipse cx="350" cy="470" rx="190" ry="26" fill="none" stroke="#fff" stroke-opacity=".06" stroke-width="2"/><text x="674" y="540" font-family="Arial, sans-serif" font-size="15" letter-spacing="6" fill="#fff" opacity=".16" text-anchor="end">VELOCITY</text><rect width="700" height="560" fill="url(#vig)"/></svg>