<svg xmlns="http://www.w3.org/2000/svg" viewBox="0 0 700 560"><defs>
<linearGradient id="bg" x1="0" y1="0" x2="0" y2="1">
<stop offset="0" stop-color="#1a1a1a"/><stop offset="1" stop-color="#0a0a0a"/>
</linearGradient>
<radialGradient id="halo"><stop offset="0" stop-color="#E53935" stop-opacity=".30"/><stop offset="1" stop-color="#E53935" stop-opacity="0"/></radialGradient>
<radialGradient id="ballG" cx=".35" cy=".3" r="1"><stop offset="0" stop-color="#ff8a80"/><stop offset=".55" stop-color="#e53935"/><stop offset="1" stop-color="#8f1414"/></radialGradient>
<linearGradient id="redV" x1="0" y1="0" x2="0" y2="1"><stop offset="0" stop-color="#ff5f52"/><stop offset="1" stop-color="#b71c1c"/></linearGradient>
<radialGradient id="vig"><stop offset=".6" stop-color="#000" stop-opacity="0"/><stop offset="1" stop-color="#000" stop-opacity=".5"/></radialGradient>
<filter id="glow" x="-80%" y="-80%" width="260%" height="260%"><feGaussianBlur stdDeviation="10" result="b"/><feMerge><feMergeNode in="b"/><feMergeNode in="SourceGraphic"/></feMerge></filter>
</defs><rect width="700" height="560" fill="url(#bg)"/><circle cx="350" cy="320" r="300" fill="url(#halo)"/><line x1="40" y1="470" x2="660" y2="470" stroke="#fff" stroke-opacity=".09" stroke-width="2"/><ellipse cx="350" cy="470" rx="190" ry="26" fill="none" stroke="#fff" stroke-opacity=".06" stroke-width="2"/><ellipse cx="170" cy="470" rx="60" ry="13" fill="#000" opacity=".5"/><ellipse cx="540" cy="470" rx="60" ry="13" fill="#000" opacity=".5"/><polyline points="166,222 178,318" fill="none" stroke="#f5f5f5" stroke-width="40" stroke-linecap="round" stroke-linejoin="round"/><polyline points="178,318 150,392 142,458" fill="none" stroke="#f5f5f5" stroke-width="21" stroke-linecap="round" stroke-linejoin="round"/><polyline points="180,318 244,360 272,420" fill="none" stroke="#f5f5f5" stroke-width="21" stroke-linecap="round" stroke-linejoin="round"/><polyline points="170,236 120,290" fill="none" stroke="#f5f5f5" stroke-width="21" stroke-linecap="round" stroke-linejoin="round"/><polyline points="172,234 228,262" fill="none" stroke="#f5f5f5" stroke-width="21" stroke-linecap="round" stroke-linejoin="round"/><circle cx="162" cy="184" r="26" fill="#f5f5f5"/><polyline points="544,230 536,326" fill="none" stroke="#f5f5f5" stroke-width="40" stroke-linecap="round" stroke-linejoin="round"/><polyline points="536,326 502,398 498,460" fill="none" stroke="#f5f5f5" stroke-width="21" stroke-linecap="round" stroke-linejoin="round"/><polyline points="538,326 582,396 590,458" fill="none" stroke="#f5f5f5" stroke-width="21" stroke-linecap="round" stroke-linejoin="round"/><polyline points="540,244 590,290" fill="none" stroke="#f5f5f5" stroke-width="21" stroke-linecap="round" stroke-linejoin="round"/><polyline points="538,244 488,286" fill="none" stroke="#f5f5f5" stroke-width="21" stroke-linecap="round" stroke-linejoin="round"/><circle cx="548" cy="192" r="26" fill="#f5f5f5"/><path d="M 290 430 Q 400 330 480 432" fill="none" stroke="#E53935" stroke-width="4" stroke-dasharray="12 10" opacity=".75"/><circle cx="470" cy="448" r="49" fill="url(#halo)"/><circle cx="470" cy="448" r="26" fill="url(#ballG)"/><polygon points="470.0,437.1 480.4,444.6 476.4,456.8 463.6,456.8 459.6,444.6" fill="#140000" opacity=".85"/><line x1="470" y1="437" x2="470" y2="426" stroke="#140000" stroke-width="2" opacity=".8"/><line x1="480" y1="445" x2="491" y2="441" stroke="#140000" stroke-width="2" opacity=".8"/><line x1="476" y1="457" x2="483" y2="466" stroke="#140000" stroke-width="2" opacity=".8"/><line x1="464" y1="457" x2="457" y2="466" stroke="#140000" stroke-width="2" opacity=".8"/><line x1="460" y1="445" x2="449" y2="441" stroke="#140000" stroke-width="2" opacity=".8"/><text x="674" y="540" font-family="Arial, sans-serif" font-size="15" letter-spacing="6" fill="#fff" opacity=".16" text-anchor="end">VELOCITY</text><rect width="700" height="560" fill="url(#vig)"/></svg>