<svg xmlns="http://www.w3.org/2000/svg" viewBox="0 0 560 760"><defs>
<linearGradient id="bg" x1="0" y1="0" x2="0" y2="1">
<stop offset="0" stop-color="#1a1a1a"/><stop offset="1" stop-color="#0a0a0a"/>
</linearGradient>
<radialGradient id="halo"><stop offset="0" stop-color="#E53935" stop-opacity=".30"/><stop offset="1" stop-color="#E53935" stop-opacity="0"/></radialGradient>
<radialGradient id="ballG" cx=".35" cy=".3" r="1"><stop offset="0" stop-color="#ff8a80"/><stop offset=".55" stop-color="#e53935"/><stop offset="1" stop-color="#8f1414"/></radialGradient>
<linearGradient id="redV" x1="0" y1="0" x2="0" y2="1"><stop offset="0" stop-color="#ff5f52"/><stop offset="1" stop-color="#b71c1c"/></linearGradient>
<radialGradient id="vig"><stop offset=".6" stop-color="#000" stop-opacity="0"/><stop offset="1" stop-color="#000" stop-opacity=".5"/></radialGradient>
<filter id="glow" x="-80%" y="-80%" width="260%" height="260%"><feGaussianBlur stdDeviation="10" result="b"/><feMerge><feMergeNode in="b"/><feMergeNode in="SourceGraphic"/></feMerge></filter>
</defs><rect width="560" height="760" fill="url(#bg)"/><polygon points="487.4,242.2 432.0,284.0 375.2,244.2 395.5,177.9 464.8,176.7" fill="none" stroke="#fff" stroke-opacity=".05" stroke-width="2"/><polygon points="320.9,321.0 292.1,356.7 249.3,340.2 251.7,294.5 296.0,282.6" fill="none" stroke="#fff" stroke-opacity=".05" stroke-width="2"/><polygon points="207.3,376.5 156.3,367.6 149.2,316.3 195.6,293.7 231.6,330.9" fill="none" stroke="#fff" stroke-opacity=".05" stroke-width="2"/><polygon points="198.1,492.2 150.4,479.4 147.8,430.1 193.9,412.4 224.9,450.8" fill="none" stroke="#fff" stroke-opacity=".05" stroke-width="2"/><polygon points="294.5,274.5 260.8,279.8 245.4,249.5 269.5,225.4 299.8,240.8" fill="none" stroke="#fff" stroke-opacity=".05" stroke-width="2"/><polygon points="349.8,566.0 296.0,608.0 239.5,569.8 258.3,504.3 326.4,501.9" fill="none" stroke="#fff" stroke-opacity=".05" stroke-width="2"/><polygon points="356.9,328.5 288.9,315.2 280.4,246.4 343.3,217.1 390.6,267.8" fill="none" stroke="#fff" stroke-opacity=".05" stroke-width="2"/><polygon points="106.0,570.0 80.4,605.2 39.1,591.7 39.1,548.3 80.4,534.8" fill="none" stroke="#fff" stroke-opacity=".05" stroke-width="2"/><polygon points="0,500 560,320 560,408 0,588" fill="#E53935" opacity=".12"/><rect x="16" y="16" width="528" height="728" fill="none" stroke="#E53935" stroke-opacity=".45" stroke-width="2"/><text x="280" y="76" font-family="Arial, sans-serif" font-size="22" letter-spacing="10" fill="#fff" opacity=".8" text-anchor="middle">VELOCITY</text><text x="280" y="106" font-family="Arial, sans-serif" font-size="13" letter-spacing="6" fill="#E53935" text-anchor="middle">ELITE ROSTER</text><text x="286" y="494" font-family="Impact, 'Arial Black', sans-serif" font-size="330" fill="#000" opacity=".55" text-anchor="middle">03</text><text x="280" y="488" font-family="Impact, 'Arial Black', sans-serif" font-size="330" fill="url(#redV)" text-anchor="middle">03</text><text x="280" y="630" font-family="Impact, 'Arial Black', sans-serif" font-size="52" letter-spacing="8" fill="#f5f5f5" text-anchor="middle">FULLBACK</text><rect x="220" y="654" width="120" height="4" fill="#E53935"/><text x="280" y="700" font-family="Arial, sans-serif" font-size="15" letter-spacing="4" fill="#888" text-anchor="middle">TRAIN FAST · PLAY FASTER</text><rect width="560" height="760" fill="url(#vig)"/></svg>