<svg xmlns="http://www.w3.org/2000/svg" viewBox="0 0 800 1000"><defs>
<linearGradient id="bg" x1="0" y1="0" x2="0" y2="1">
<stop offset="0" stop-color="#1a1a1a"/><stop offset="1" stop-color="#0a0a0a"/>
</linearGradient>
<radialGradient id="halo"><stop offset="0" stop-color="#E53935" stop-opacity=".30"/><stop offset="1" stop-color="#E53935" stop-opacity="0"/></radialGradient>
<radialGradient id="ballG" cx=".35" cy=".3" r="1"><stop offset="0" stop-color="#ff8a80"/><stop offset=".55" stop-color="#e53935"/><stop offset="1" stop-color="#8f1414"/></radialGradient>
<linearGradient id="redV" x1="0" y1="0" x2="0" y2="1"><stop offset="0" stop-color="#ff5f52"/><stop offset="1" stop-color="#b71c1c"/></linearGradient>
<radialGradient id="vig"><stop offset=".6" stop-color="#000" stop-opacity="0"/><stop offset="1" stop-color="#000" stop-opacity=".5"/></radialGradient>
<filter id="glow" x="-80%" y="-80%" width="260%" height="260%"><feGaussianBlur stdDeviation="10" result="b"/><feMerge><feMergeNode in="b"/><feMergeNode in="SourceGraphic"/></feMerge></filter>
</defs><rect width="800" height="1000" fill="url(#bg)"/><g><rect x="-40" y="-20" width="20" height="80" fill="#E53935" transform="rotate(45 0 20)" opacity=".5"/><rect x="4" y="-20" width="20" height="80" fill="#E53935" transform="rotate(45 44 20)" opacity=".5"/><rect x="48" y="-20" width="20" height="80" fill="#E53935" transform="rotate(45 88 20)" opacity=".5"/><rect x="92" y="-20" width="20" height="80" fill="#E53935" transform="rotate(45 132 20)" opacity=".5"/><rect x="136" y="-20" width="20" height="80" fill="#E53935" transform="rotate(45 176 20)" opacity=".5"/><rect x="180" y="-20" width="20" height="80" fill="#E53935" transform="rotate(45 220 20)" opacity=".5"/><rect x="224" y="-20" width="20" height="80" fill="#E53935" transform="rotate(45 264 20)" opacity=".5"/><rect x="268" y="-20" width="20" height="80" fill="#E53935" transform="rotate(45 308 20)" opacity=".5"/></g><g transform="translate(800,1000) rotate(180)"><rect x="-40" y="-20" width="20" height="80" fill="#E53935" transform="rotate(45 0 20)" opacity=".5"/><rect x="4" y="-20" width="20" height="80" fill="#E53935" transform="rotate(45 44 20)" opacity=".5"/><rect x="48" y="-20" width="20" height="80" fill="#E53935" transform="rotate(45 88 20)" opacity=".5"/><rect x="92" y="-20" width="20" height="80" fill="#E53935" transform="rotate(45 132 20)" opacity=".5"/><rect x="136" y="-20" width="20" height="80" fill="#E53935" transform="rotate(45 176 20)" opacity=".5"/><rect x="180" y="-20" width="20" height="80" fill="#E53935" transform="rotate(45 220 20)" opacity=".5"/><rect x="224" y="-20" width="20" height="80" fill="#E53935" transform="rotate(45 264 20)" opacity=".5"/><rect x="268" y="-20" width="20" height="80" fill="#E53935" transform="rotate(45 308 20)" opacity=".5"/></g><rect x="22" y="22" width="756" height="956" fill="none" stroke="#E53935" stroke-opacity=".6" stroke-width="3"/><text x="400" y="150" font-family="Arial, sans-serif" font-size="24" letter-spacing="12" fill="#bbb" text-anchor="middle">VELOCITY PRESENTS</text><text x="400" y="290" font-family="Impact, 'Arial Black', sans-serif" font-size="128" letter-spacing="4" fill="#f5f5f5" text-anchor="middle">WEEKEND</text><text x="400" y="408" font-family="Impact, 'Arial Black', sans-serif" font-size="100" letter-spacing="3" fill="url(#redV)" text-anchor="middle">SCRIMMAGES</text><rect x="300" y="438" width="200" height="5" fill="#E53935"/><text x="400" y="510" font-family="Arial, sans-serif" font-size="26" letter-spacing="4" fill="#ddd" text-anchor="middle">INVITE ONLY &#183; EXCLUSIVE ACCESS</text><text x="400" y="556" font-family="Arial, sans-serif" font-size="26" letter-spacing="4" fill="#ddd" text-anchor="middle">HIGHLY COMPETITIVE &#183; ELITE ENVIRONMENT</text><text x="400" y="602" font-family="Arial, sans-serif" font-size="26" letter-spacing="4" fill="#ddd" text-anchor="middle">MIXED AGE GROUPS &#183; 2 HOURS PER SESSION</text><circle cx="400" cy="760" r="280" fill="url(#halo)"/><text x="404" y="822" font-family="Impact, 'Arial Black', sans-serif" font-size="220" fill="#000" opacity=".5" text-anchor="middle">10</text><text x="400" y="818" font-family="Impact, 'Arial Black', sans-serif" font-size="220" fill="url(#redV)" text-anchor="middle">10</text><text x="400" y="868" font-family="Arial, sans-serif" font-size="30" letter-spacing="10" fill="#f5f5f5" text-anchor="middle">LIMITED SPOTS</text><text x="400" y="930" font-family="Arial, sans-serif" font-size="22" letter-spacing="4" fill="#999" text-anchor="middle">$100 / 4 SESSIONS &#183; SUNDAYS</text><rect width="800" height="1000" fill="url(#vig)"/></svg>