<svg xmlns="http://www.w3.org/2000/svg" viewBox="0 0 700 560"><defs>
<linearGradient id="bg" x1="0" y1="0" x2="0" y2="1">
<stop offset="0" stop-color="#1a1a1a"/><stop offset="1" stop-color="#0a0a0a"/>
</linearGradient>
<radialGradient id="halo"><stop offset="0" stop-color="#E53935" stop-opacity=".30"/><stop offset="1" stop-color="#E53935" stop-opacity="0"/></radialGradient>
<radialGradient id="ballG" cx=".35" cy=".3" r="1"><stop offset="0" stop-color="#ff8a80"/><stop offset=".55" stop-color="#e53935"/><stop offset="1" stop-color="#8f1414"/></radialGradient>
<linearGradient id="redV" x1="0" y1="0" x2="0" y2="1"><stop offset="0" stop-color="#ff5f52"/><stop offset="1" stop-color="#b71c1c"/></linearGradient>
<radialGradient id="vig"><stop offset=".6" stop-color="#000" stop-opacity="0"/><stop offset="1" stop-color="#000" stop-opacity=".5"/></radialGradient>
<filter id="glow" x="-80%" y="-80%" width="260%" height="260%"><feGaussianBlur stdDeviation="10" result="b"/><feMerge><feMergeNode in="b"/><feMergeNode in="SourceGraphic"/></feMerge></filter>
</defs><rect width="700" height="560" fill="url(#bg)"/><rect x="0" y="300" width="700" height="40" fill="#E53935" opacity=".06"/><ellipse cx="350" cy="310" rx="330" ry="60" fill="url(#halo)"/><polygon points="154,90 166,90 176,330 144,330" fill="#1f1f1f"/><rect x="116" y="52" width="88" height="52" rx="6" fill="#101010" stroke="#333"/><circle cx="127" cy="66" r="8" fill="#fff" filter="url(#glow)"/><circle cx="149" cy="66" r="8" fill="#fff" filter="url(#glow)"/><circle cx="171" cy="66" r="8" fill="#fff" filter="url(#glow)"/><circle cx="193" cy="66" r="8" fill="#fff" filter="url(#glow)"/><circle cx="127" cy="86" r="8" fill="#fff" filter="url(#glow)"/><circle cx="149" cy="86" r="8" fill="#fff" filter="url(#glow)"/><circle cx="171" cy="86" r="8" fill="#fff" filter="url(#glow)"/><circle cx="193" cy="86" r="8" fill="#fff" filter="url(#glow)"/><polygon points="120,104 200,104 310,470 10,470" fill="#fff" opacity=".05"/><polygon points="534,90 546,90 556,330 524,330" fill="#1f1f1f"/><rect x="496" y="52" width="88" height="52" rx="6" fill="#101010" stroke="#333"/><circle cx="507" cy="66" r="8" fill="#fff" filter="url(#glow)"/><circle cx="529" cy="66" r="8" fill="#fff" filter="url(#glow)"/><circle cx="551" cy="66" r="8" fill="#fff" filter="url(#glow)"/><circle cx="573" cy="66" r="8" fill="#fff" filter="url(#glow)"/><circle cx="507" cy="86" r="8" fill="#fff" filter="url(#glow)"/><circle cx="529" cy="86" r="8" fill="#fff" filter="url(#glow)"/><circle cx="551" cy="86" r="8" fill="#fff" filter="url(#glow)"/><circle cx="573" cy="86" r="8" fill="#fff" filter="url(#glow)"/><polygon points="500,104 580,104 690,470 390,470" fill="#fff" opacity=".05"/><line x1="120" y1="358" x2="580" y2="358" stroke="#fff" stroke-opacity=".1" stroke-width="2"/><line x1="108" y1="386" x2="592" y2="386" stroke="#fff" stroke-opacity=".1" stroke-width="2"/><line x1="96" y1="414" x2="604" y2="414" stroke="#fff" stroke-opacity=".1" stroke-width="2"/><line x1="84" y1="442" x2="616" y2="442" stroke="#fff" stroke-opacity=".1" stroke-width="2"/><line x1="72" y1="470" x2="628" y2="470" stroke="#fff" stroke-opacity=".1" stroke-width="2"/><ellipse cx="350" cy="420" rx="120" ry="34" fill="none" stroke="#fff" stroke-opacity=".18" stroke-width="3"/><line x1="80" y1="420" x2="620" y2="420" stroke="#fff" stroke-opacity=".18" stroke-width="3"/><circle cx="350" cy="420" r="42" fill="url(#halo)"/><circle cx="350" cy="420" r="22" fill="url(#ballG)"/><polygon points="350.0,410.8 358.8,417.1 355.4,427.5 344.6,427.5 341.2,417.1" fill="#140000" opacity=".85"/><line x1="350" y1="411" x2="350" y2="401" stroke="#140000" stroke-width="2" opacity=".8"/><line x1="359" y1="417" x2="368" y2="414" stroke="#140000" stroke-width="2" opacity=".8"/><line x1="355" y1="427" x2="361" y2="435" stroke="#140000" stroke-width="2" opacity=".8"/><line x1="345" y1="427" x2="339" y2="435" stroke="#140000" stroke-width="2" opacity=".8"/><line x1="341" y1="417" x2="332" y2="414" stroke="#140000" stroke-width="2" opacity=".8"/><text x="674" y="540" font-family="Arial, sans-serif" font-size="15" letter-spacing="6" fill="#fff" opacity=".16" text-anchor="end">VELOCITY</text><rect width="700" height="560" fill="url(#vig)"/></svg>