<svg xmlns="http://www.w3.org/2000/svg" viewBox="0 0 700 560"><defs>
<linearGradient id="bg" x1="0" y1="0" x2="0" y2="1">
<stop offset="0" stop-color="#1a1a1a"/><stop offset="1" stop-color="#0a0a0a"/>
</linearGradient>
<radialGradient id="halo"><stop offset="0" stop-color="#E53935" stop-opacity=".30"/><stop offset="1" stop-color="#E53935" stop-opacity="0"/></radialGradient>
<radialGradient id="ballG" cx=".35" cy=".3" r="1"><stop offset="0" stop-color="#ff8a80"/><stop offset=".55" stop-color="#e53935"/><stop offset="1" stop-color="#8f1414"/></radialGradient>
<linearGradient id="redV" x1="0" y1="0" x2="0" y2="1"><stop offset="0" stop-color="#ff5f52"/><stop offset="1" stop-color="#b71c1c"/></linearGradient>
<radialGradient id="vig"><stop offset=".6" stop-color="#000" stop-opacity="0"/><stop offset="1" stop-color="#000" stop-opacity=".5"/></radialGradient>
<filter id="glow" x="-80%" y="-80%" width="260%" height="260%"><feGaussianBlur stdDeviation="10" result="b"/><feMerge><feMergeNode in="b"/><feMergeNode in="SourceGraphic"/></feMerge></filter>
</defs><rect width="700" height="560" fill="url(#bg)"/><circle cx="420" cy="300" r="280" fill="url(#halo)"/><line x1="40" y1="470" x2="660" y2="470" stroke="#fff" stroke-opacity=".09" stroke-width="2"/><ellipse cx="350" cy="470" rx="190" ry="26" fill="none" stroke="#fff" stroke-opacity=".06" stroke-width="2"/><ellipse cx="340" cy="470" rx="90" ry="13" fill="#000" opacity=".5"/><polyline points="352,192 330,300" fill="none" stroke="#f5f5f5" stroke-width="46" stroke-linecap="round" stroke-linejoin="round"/><polyline points="330,300 300,380 288,462" fill="none" stroke="#f5f5f5" stroke-width="24" stroke-linecap="round" stroke-linejoin="round"/><polyline points="334,300 420,348 498,330" fill="none" stroke="#f5f5f5" stroke-width="24" stroke-linecap="round" stroke-linejoin="round"/><polyline points="348,206 272,264" fill="none" stroke="#f5f5f5" stroke-width="24" stroke-linecap="round" stroke-linejoin="round"/><polyline points="352,204 432,196 472,148" fill="none" stroke="#f5f5f5" stroke-width="24" stroke-linecap="round" stroke-linejoin="round"/><circle cx="352" cy="152" r="28" fill="#f5f5f5"/><path d="M 470 330 A 150 150 0 0 1 600 250" fill="none" stroke="#E53935" stroke-width="4" opacity=".35" stroke-linecap="round"/><path d="M 480 360 A 180 180 0 0 1 640 290" fill="none" stroke="#E53935" stroke-width="3" opacity=".2" stroke-linecap="round"/><circle cx="575" cy="300" r="65" fill="url(#halo)"/><circle cx="575" cy="300" r="34" fill="url(#ballG)"/><polygon points="575.0,285.7 588.6,295.6 583.4,311.6 566.6,311.6 561.4,295.6" fill="#140000" opacity=".85"/><line x1="575" y1="286" x2="575" y2="271" stroke="#140000" stroke-width="2" opacity=".8"/><line x1="589" y1="296" x2="603" y2="291" stroke="#140000" stroke-width="2" opacity=".8"/><line x1="583" y1="312" x2="592" y2="324" stroke="#140000" stroke-width="2" opacity=".8"/><line x1="567" y1="312" x2="558" y2="324" stroke="#140000" stroke-width="2" opacity=".8"/><line x1="561" y1="296" x2="547" y2="291" stroke="#140000" stroke-width="2" opacity=".8"/><text x="674" y="540" font-family="Arial, sans-serif" font-size="15" letter-spacing="6" fill="#fff" opacity=".16" text-anchor="end">VELOCITY</text><rect width="700" height="560" fill="url(#vig)"/></svg>