<svg xmlns="http://www.w3.org/2000/svg" viewBox="0 0 700 560"><defs>
<linearGradient id="bg" x1="0" y1="0" x2="0" y2="1">
<stop offset="0" stop-color="#1a1a1a"/><stop offset="1" stop-color="#0a0a0a"/>
</linearGradient>
<radialGradient id="halo"><stop offset="0" stop-color="#E53935" stop-opacity=".30"/><stop offset="1" stop-color="#E53935" stop-opacity="0"/></radialGradient>
<radialGradient id="ballG" cx=".35" cy=".3" r="1"><stop offset="0" stop-color="#ff8a80"/><stop offset=".55" stop-color="#e53935"/><stop offset="1" stop-color="#8f1414"/></radialGradient>
<linearGradient id="redV" x1="0" y1="0" x2="0" y2="1"><stop offset="0" stop-color="#ff5f52"/><stop offset="1" stop-color="#b71c1c"/></linearGradient>
<radialGradient id="vig"><stop offset=".6" stop-color="#000" stop-opacity="0"/><stop offset="1" stop-color="#000" stop-opacity=".5"/></radialGradient>
<filter id="glow" x="-80%" y="-80%" width="260%" height="260%"><feGaussianBlur stdDeviation="10" result="b"/><feMerge><feMergeNode in="b"/><feMergeNode in="SourceGraphic"/></feMerge></filter>
</defs><rect width="700" height="560" fill="url(#bg)"/><circle cx="350" cy="280" r="300" fill="url(#halo)"/><rect x="100" y="80" width="500" height="400" rx="8" fill="none" stroke="#fff" stroke-opacity=".4" stroke-width="3"/><line x1="100" y1="280" x2="600" y2="280" stroke="#fff" stroke-opacity=".3" stroke-width="2"/><circle cx="350" cy="280" r="58" fill="none" stroke="#fff" stroke-opacity=".3" stroke-width="2"/><rect x="240" y="80" width="220" height="70" fill="none" stroke="#fff" stroke-opacity=".3" stroke-width="2"/><rect x="240" y="410" width="220" height="70" fill="none" stroke="#fff" stroke-opacity=".3" stroke-width="2"/><line x1="186" y1="346" x2="214" y2="374" stroke="#E53935" stroke-width="7" stroke-linecap="round"/><line x1="214" y1="346" x2="186" y2="374" stroke="#E53935" stroke-width="7" stroke-linecap="round"/><line x1="336" y1="316" x2="364" y2="344" stroke="#E53935" stroke-width="7" stroke-linecap="round"/><line x1="364" y1="316" x2="336" y2="344" stroke="#E53935" stroke-width="7" stroke-linecap="round"/><line x1="466" y1="366" x2="494" y2="394" stroke="#E53935" stroke-width="7" stroke-linecap="round"/><line x1="494" y1="366" x2="466" y2="394" stroke="#E53935" stroke-width="7" stroke-linecap="round"/><line x1="286" y1="416" x2="314" y2="444" stroke="#E53935" stroke-width="7" stroke-linecap="round"/><line x1="314" y1="416" x2="286" y2="444" stroke="#E53935" stroke-width="7" stroke-linecap="round"/><circle cx="250" cy="180" r="15" fill="none" stroke="#f5f5f5" stroke-width="6"/><circle cx="420" cy="160" r="15" fill="none" stroke="#f5f5f5" stroke-width="6"/><circle cx="350" cy="230" r="15" fill="none" stroke="#f5f5f5" stroke-width="6"/><circle cx="180" cy="240" r="15" fill="none" stroke="#f5f5f5" stroke-width="6"/><path d="M 350 330 Q 390 250 420 180" fill="none" stroke="#E53935" stroke-width="4" stroke-dasharray="10 8"/><polygon points="424,156 408,184 436,180" fill="#E53935"/><path d="M 200 360 Q 210 290 250 200" fill="none" stroke="#fff" stroke-opacity=".5" stroke-width="3" stroke-dasharray="8 8"/><text x="674" y="540" font-family="Arial, sans-serif" font-size="15" letter-spacing="6" fill="#fff" opacity=".16" text-anchor="end">VELOCITY</text><rect width="700" height="560" fill="url(#vig)"/></svg>