<svg xmlns="http://www.w3.org/2000/svg" viewBox="0 0 700 560"><defs>
<linearGradient id="bg" x1="0" y1="0" x2="0" y2="1">
<stop offset="0" stop-color="#1a1a1a"/><stop offset="1" stop-color="#0a0a0a"/>
</linearGradient>
<radialGradient id="halo"><stop offset="0" stop-color="#E53935" stop-opacity=".30"/><stop offset="1" stop-color="#E53935" stop-opacity="0"/></radialGradient>
<radialGradient id="ballG" cx=".35" cy=".3" r="1"><stop offset="0" stop-color="#ff8a80"/><stop offset=".55" stop-color="#e53935"/><stop offset="1" stop-color="#8f1414"/></radialGradient>
<linearGradient id="redV" x1="0" y1="0" x2="0" y2="1"><stop offset="0" stop-color="#ff5f52"/><stop offset="1" stop-color="#b71c1c"/></linearGradient>
<radialGradient id="vig"><stop offset=".6" stop-color="#000" stop-opacity="0"/><stop offset="1" stop-color="#000" stop-opacity=".5"/></radialGradient>
<filter id="glow" x="-80%" y="-80%" width="260%" height="260%"><feGaussianBlur stdDeviation="10" result="b"/><feMerge><feMergeNode in="b"/><feMergeNode in="SourceGraphic"/></feMerge></filter>
</defs><rect width="700" height="560" fill="url(#bg)"/><circle cx="350" cy="300" r="300" fill="url(#halo)"/><line x1="40" y1="470" x2="660" y2="470" stroke="#fff" stroke-opacity=".09" stroke-width="2"/><ellipse cx="350" cy="470" rx="190" ry="26" fill="none" stroke="#fff" stroke-opacity=".06" stroke-width="2"/><ellipse cx="190" cy="470" rx="46" ry="13" fill="#000" opacity=".5"/><ellipse cx="270" cy="470" rx="46" ry="13" fill="#000" opacity=".5"/><ellipse cx="350" cy="470" rx="46" ry="13" fill="#000" opacity=".5"/><ellipse cx="430" cy="470" rx="46" ry="13" fill="#000" opacity=".5"/><ellipse cx="510" cy="470" rx="46" ry="13" fill="#000" opacity=".5"/><polyline points="190,232 190,330" fill="none" stroke="#f5f5f5" stroke-width="40" stroke-linecap="round" stroke-linejoin="round"/><polyline points="190,330 168,400 170,462" fill="none" stroke="#f5f5f5" stroke-width="20" stroke-linecap="round" stroke-linejoin="round"/><polyline points="190,330 212,400 210,462" fill="none" stroke="#f5f5f5" stroke-width="20" stroke-linecap="round" stroke-linejoin="round"/><polyline points="270,232 270,330" fill="none" stroke="#f5f5f5" stroke-width="40" stroke-linecap="round" stroke-linejoin="round"/><polyline points="270,330 248,400 250,462" fill="none" stroke="#f5f5f5" stroke-width="20" stroke-linecap="round" stroke-linejoin="round"/><polyline points="270,330 292,400 290,462" fill="none" stroke="#f5f5f5" stroke-width="20" stroke-linecap="round" stroke-linejoin="round"/><polyline points="350,232 350,330" fill="none" stroke="#f5f5f5" stroke-width="40" stroke-linecap="round" stroke-linejoin="round"/><polyline points="350,330 328,400 330,462" fill="none" stroke="#f5f5f5" stroke-width="20" stroke-linecap="round" stroke-linejoin="round"/><polyline points="350,330 372,400 370,462" fill="none" stroke="#f5f5f5" stroke-width="20" stroke-linecap="round" stroke-linejoin="round"/><polyline points="430,232 430,330" fill="none" stroke="#f5f5f5" stroke-width="40" stroke-linecap="round" stroke-linejoin="round"/><polyline points="430,330 408,400 410,462" fill="none" stroke="#f5f5f5" stroke-width="20" stroke-linecap="round" stroke-linejoin="round"/><polyline points="430,330 452,400 450,462" fill="none" stroke="#f5f5f5" stroke-width="20" stroke-linecap="round" stroke-linejoin="round"/><polyline points="510,232 510,330" fill="none" stroke="#f5f5f5" stroke-width="40" stroke-linecap="round" stroke-linejoin="round"/><polyline points="510,330 488,400 490,462" fill="none" stroke="#f5f5f5" stroke-width="20" stroke-linecap="round" stroke-linejoin="round"/><polyline points="510,330 532,400 530,462" fill="none" stroke="#f5f5f5" stroke-width="20" stroke-linecap="round" stroke-linejoin="round"/><polyline points="198,246 262,246" fill="none" stroke="#f5f5f5" stroke-width="18" stroke-linecap="round" stroke-linejoin="round"/><polyline points="278,246 342,246" fill="none" stroke="#f5f5f5" stroke-width="18" stroke-linecap="round" stroke-linejoin="round"/><polyline points="358,246 422,246" fill="none" stroke="#f5f5f5" stroke-width="18" stroke-linecap="round" stroke-linejoin="round"/><polyline points="438,246 502,246" fill="none" stroke="#f5f5f5" stroke-width="18" stroke-linecap="round" stroke-linejoin="round"/><polyline points="190,246 140,310" fill="none" stroke="#f5f5f5" stroke-width="18" stroke-linecap="round" stroke-linejoin="round"/><polyline points="510,246 560,310" fill="none" stroke="#f5f5f5" stroke-width="18" stroke-linecap="round" stroke-linejoin="round"/><circle cx="190" cy="192" r="26" fill="#f5f5f5"/><circle cx="270" cy="192" r="26" fill="#f5f5f5"/><circle cx="350" cy="192" r="26" fill="#f5f5f5"/><circle cx="430" cy="192" r="26" fill="#f5f5f5"/><circle cx="510" cy="192" r="26" fill="#f5f5f5"/><circle cx="350" cy="452" r="49" fill="url(#halo)"/><circle cx="350" cy="452" r="26" fill="url(#ballG)"/><polygon points="350.0,441.1 360.4,448.6 356.4,460.8 343.6,460.8 339.6,448.6" fill="#140000" opacity=".85"/><line x1="350" y1="441" x2="350" y2="430" stroke="#140000" stroke-width="2" opacity=".8"/><line x1="360" y1="449" x2="371" y2="445" stroke="#140000" stroke-width="2" opacity=".8"/><line x1="356" y1="461" x2="363" y2="470" stroke="#140000" stroke-width="2" opacity=".8"/><line x1="344" y1="461" x2="337" y2="470" stroke="#140000" stroke-width="2" opacity=".8"/><line x1="340" y1="449" x2="329" y2="445" stroke="#140000" stroke-width="2" opacity=".8"/><text x="674" y="540" font-family="Arial, sans-serif" font-size="15" letter-spacing="6" fill="#fff" opacity=".16" text-anchor="end">VELOCITY</text><rect width="700" height="560" fill="url(#vig)"/></svg>